<svg id="Layer_1" data-name="Layer 1" xmlns="http://www.w3.org/2000/svg" xmlns:xlink="http://www.w3.org/1999/xlink" viewBox="240 0 460 200">
	<defs>
		<style>.al-cls-1{fill:#dbdbdb;}.al-cls-2{fill:#eed5ca;}.al-cls-3{fill:#cadfee;}.al-cls-4{clip-path:url(#clip-path);}.al-cls-5{clip-path:url(#clip-path-2);}.al-cls-6{clip-path:url(#clip-path-3);}.al-cls-7{clip-path:url(#clip-path-4);}.al-cls-14,.al-cls-8{fill:none;stroke-miterlimit:10;}.al-cls-8{stroke:#8a8a8a;}.al-cls-9{font-size:13px;}.al-cls-12,.al-cls-15,.al-cls-9{font-family:HelveticaNeue, Helvetica Neue;}.al-cls-10{letter-spacing:-0.02em;}.al-cls-11{letter-spacing:0.02em;}.al-cls-12{font-size:10px;}.al-cls-13{letter-spacing:-0.09em;}.al-cls-14{stroke:#000;}.al-cls-15{font-size:11px;fill:#6b6b6b;}.al-cls-16{fill:#f2d5ca;}.al-cls-17{fill:#c6e0ed;}</style>
		<clipPath id="clip-path">
			<circle class="al-cls-1" cx="337.74" cy="144.93" r="28.07" />
		</clipPath>
		<clipPath id="clip-path-2">
			<circle class="al-cls-2" cx="296.74" cy="61.93" r="28.07" />
		</clipPath>
		<clipPath id="clip-path-3">
			<circle class="al-cls-3" cx="379.74" cy="61.93" r="28.07" />
		</clipPath>
		<clipPath id="clip-path-4">
			<circle class="al-cls-1" cx="606.74" cy="144.93" r="28.07" />
		</clipPath>
	</defs>

	<circle class="al-cls-1" cx="337.74" cy="144.93" r="28.07" />
	<g class="al-cls-4">
		<path d="M337.34,147.14a10.06,10.06,0,1,0-10-10.06A10.05,10.05,0,0,0,337.34,147.14Zm0,5c-6.71,0-20.11,3.37-20.11,10.06v15.23h40.23V162.23C357.46,155.54,344.06,152.17,337.34,152.17Z" />
	</g>
	<circle class="al-cls-2" cx="296.74" cy="61.93" r="28.07" />
	<g class="al-cls-5">
		<path d="M296.34,64.14a10.06,10.06,0,1,0-10-10.06A10.05,10.05,0,0,0,296.34,64.14Zm0,5c-6.71,0-20.11,3.37-20.11,10.06V94.46h40.23V79.23C316.46,72.54,303.06,69.17,296.34,69.17Z" />
	</g>
	<circle class="al-cls-3" cx="379.74" cy="61.93" r="28.07" />
	<g class="al-cls-6">
		<path d="M379.34,64.14a10.06,10.06,0,1,0-10-10.06A10.05,10.05,0,0,0,379.34,64.14Zm0,5c-6.71,0-20.11,3.37-20.11,10.06V94.46h40.23V79.23C399.46,72.54,386.06,69.17,379.34,69.17Z" />
	</g>
	<circle class="al-cls-1" cx="606.74" cy="144.93" r="28.07" />
	<g class="al-cls-7">
		<path d="M606.34,147.14a10.06,10.06,0,1,0-10.05-10.06A10.05,10.05,0,0,0,606.34,147.14Zm0,5c-6.71,0-20.11,3.37-20.11,10.06v15.23h40.23V162.23C626.46,155.54,613.06,152.17,606.34,152.17Z" />
	</g>
	<rect class="al-cls-8" x="256.73" y="24.5" width="164" height="73" rx="36.5" />
	<text class="al-cls-12" transform="translate(293.54 14.78)">
		HUMAN DEB
		<tspan class="al-cls-13" x="59.63" y="0">
			A
		</tspan>
		<tspan x="65.19" y="0">
			TERS
		</tspan>
	</text>
	<rect class="al-cls-8" x="526.5" y="24.5" width="164" height="73" rx="36.5" />
	<text class="al-cls-12" transform="translate(560.97 14.78)">
		MACHINE DEB
		<tspan class="al-cls-13" x="68.33" y="0">
			A
		</tspan>
		<tspan x="73.89" y="0">
			TERS
		</tspan>
	</text>
	<text class="al-cls-9" transform="translate(459.43 46.61)">
		Apply
		<tspan x="-5.42" y="19">
			lessons
		</tspan>
	</text>
	<path class="al-cls-14" d="M431.48,34.1a57.43,57.43,0,0,1,83.34-5.18" />
	<path d="M519,33.27a30,30,0,0,0-9.37-2.8l4.6-2.09,2.21-4.55A30.16,30.16,0,0,0,519,33.27Z" />
	<text class="al-cls-15" transform="translate(297.45 193.16)">
		HUMAN JUDGE
	</text>
	<text class="al-cls-15" transform="translate(566.45 193.16)">
		HUMAN JUDGE
	</text>
	<circle class="al-cls-16" cx="566.74" cy="60.93" r="28.07" />
	<path d="M582.33,74.88a3.83,3.83,0,0,0,3.82-3.83l0-21.08a3.85,3.85,0,0,0-3.84-3.84H551.67A3.85,3.85,0,0,0,547.83,50V71.05a3.85,3.85,0,0,0,3.84,3.83H544a3.85,3.85,0,0,0,3.83,3.84h38.34A3.85,3.85,0,0,0,590,74.88ZM551.67,50h30.66V71.05H551.67ZM567,76.8a1.92,1.92,0,1,1,1.92-1.92A1.93,1.93,0,0,1,567,76.8Z" />
	<circle class="al-cls-17" cx="651.74" cy="60.93" r="28.07" />
	<path d="M667.33,74.88a3.83,3.83,0,0,0,3.82-3.83l0-21.08a3.85,3.85,0,0,0-3.84-3.84H636.67A3.85,3.85,0,0,0,632.83,50V71.05a3.85,3.85,0,0,0,3.84,3.83H629a3.85,3.85,0,0,0,3.83,3.84h38.34A3.85,3.85,0,0,0,675,74.88ZM636.67,50h30.66V71.05H636.67ZM652,76.8a1.92,1.92,0,1,1,1.92-1.92A1.93,1.93,0,0,1,652,76.8Z" />
</svg>
